<svg xmlns="http://www.w3.org/2000/svg" xmlns:xlink="http://www.w3.org/1999/xlink" viewBox="0 0 5760 3840"><defs><style>.cls-1{fill:url(#linear-gradient);}.cls-2{fill:url(#linear-gradient-2);}.cls-10,.cls-3,.cls-5,.cls-6,.cls-7{fill:#fff;}.cls-3,.cls-4{opacity:0.1;}.cls-4,.cls-8,.cls-9{fill:none;}.cls-10,.cls-4,.cls-6,.cls-7,.cls-8{stroke:#fff;stroke-width:3px;}.cls-10,.cls-4,.cls-7,.cls-8,.cls-9{stroke-miterlimit:10;}.cls-9{stroke:#000;}.cls-10{opacity:0.2;}</style><linearGradient id="linear-gradient" x1="2880" y1="-256.54" x2="2880" y2="2694.39" gradientUnits="userSpaceOnUse"><stop offset="0" stop-color="#3d7189"/><stop offset="0.33" stop-color="#7198a7"/><stop offset="0.59" stop-color="#9db8c1"/></linearGradient><linearGradient id="linear-gradient-2" x1="2880" y1="1817.06" x2="2880" y2="4053.66" gradientTransform="matrix(1, 0, 0, -1, 0, 5914.59)" gradientUnits="userSpaceOnUse"><stop offset="0" stop-color="#466579"/><stop offset="0.49" stop-color="#7a97a4"/><stop offset="0.79" stop-color="#9db8c1"/></linearGradient></defs><title>Sea Circles</title><g id="Layer_8" data-name="Layer 8"><rect class="cls-1" width="5760" height="1920"/><rect class="cls-2" y="1912.58" width="5760" height="1927.42"/></g><g id="Circles"><circle class="cls-3" cx="3059.91" cy="1508.58" r="93.14"/><circle class="cls-3" cx="3160.3" cy="735.91" r="96.31"/><circle class="cls-3" cx="4318.93" cy="600.29" r="95.98"/><circle class="cls-3" cx="4209.15" cy="1977.7" r="91.05"/><circle class="cls-3" cx="3484.97" cy="2446.08" r="54.12"/><circle class="cls-3" cx="2700.81" cy="2713.22" r="68.51"/><circle class="cls-3" cx="2302.54" cy="3220.3" r="96.15"/><circle class="cls-3" cx="1334.1" cy="3505.04" r="84.21"/><circle class="cls-3" cx="540.31" cy="3505.8" r="87.7"/><circle class="cls-3" cx="205.59" cy="2070.48" r="62.82"/><circle class="cls-3" cx="63.09" cy="1178.33" r="93.05"/><circle class="cls-3" cx="1938.86" cy="412.52" r="87.22"/><circle class="cls-3" cx="5555.44" cy="1286.54" r="76.72"/><circle class="cls-3" cx="4943.82" cy="2796.65" r="52.45"/><circle class="cls-3" cx="3614.87" cy="3508.75" r="92.63"/><circle class="cls-3" cx="1900.22" cy="2242.84" r="63.89"/><circle class="cls-3" cx="1494.62" cy="1261.81" r="91.92"/></g><g id="Lines"><line class="cls-4" x1="1494.62" y1="1261.81" x2="1938.86" y2="412.52"/><line class="cls-4" x1="3059.91" y1="1508.58" x2="1494.62" y2="1261.81"/><line class="cls-4" x1="3160.3" y1="735.91" x2="3059.91" y2="1508.58"/><line class="cls-4" x1="1938.86" y1="412.52" x2="3160.3" y2="735.91"/><line class="cls-4" x1="1494.62" y1="1261.81" x2="3160.3" y2="735.91"/><line class="cls-4" x1="63.09" y1="1178.33" x2="1494.62" y2="1261.81"/><line class="cls-4" x1="205.59" y1="2070.48" x2="63.09" y2="1178.33"/><line class="cls-4" x1="1900.22" y1="2242.84" x2="1494.62" y2="1261.81"/><line class="cls-4" x1="205.59" y1="2070.48" x2="1900.22" y2="2242.84"/><line class="cls-4" x1="1494.62" y1="1261.81" x2="205.59" y2="2070.48"/><line class="cls-4" x1="540.31" y1="3505.8" x2="1494.62" y2="1261.81"/><line class="cls-4" x1="2700.81" y1="2713.22" x2="1900.22" y2="2242.84"/><line class="cls-4" x1="1334.1" y1="3505.04" x2="540.31" y2="3505.8"/><line class="cls-4" x1="1900.22" y1="2242.84" x2="540.31" y2="3505.8"/><line class="cls-4" x1="1334.1" y1="3505.04" x2="1900.22" y2="2242.84"/><line class="cls-4" x1="205.59" y1="2070.48" x2="1334.1" y2="3505.04"/><line class="cls-4" x1="2302.54" y1="3220.3" x2="1334.1" y2="3505.04"/><line class="cls-4" x1="2700.81" y1="2713.22" x2="2302.54" y2="3220.3"/><line class="cls-4" x1="1900.22" y1="2242.84" x2="2302.54" y2="3220.3"/><line class="cls-4" x1="1334.1" y1="3505.04" x2="1543.57" y2="3923.99"/><line class="cls-4" x1="540.31" y1="3505.8" x2="505.43" y2="3939.6"/><line class="cls-4" x1="1334.1" y1="3505.04" x2="1052.9" y2="3920.08"/><line class="cls-4" x1="540.31" y1="3505.8" x2="205.59" y2="2070.48"/><line class="cls-4" x1="1900.22" y1="2242.84" x2="3059.91" y2="1508.58"/><line class="cls-4" x1="2700.81" y1="2713.22" x2="3059.91" y2="1508.58"/><line class="cls-4" x1="3484.97" y1="2446.08" x2="3059.91" y2="1508.58"/><line class="cls-4" x1="2700.81" y1="2713.22" x2="1494.62" y2="1261.81"/><line class="cls-4" x1="3484.97" y1="2446.08" x2="2700.81" y2="2713.22"/><line class="cls-4" x1="1494.62" y1="1261.81" x2="3484.97" y2="2446.08"/><line class="cls-4" x1="63.09" y1="1178.33" x2="769.85" y2="-60.75"/><line class="cls-4" x1="1494.62" y1="1261.81" x2="-68.28" y2="103.17"/><line class="cls-4" x1="1938.86" y1="412.52" x2="63.09" y2="1178.33"/><line class="cls-4" x1="3160.3" y1="735.91" x2="2940.76" y2="-80.26"/><line class="cls-4" x1="4318.93" y1="600.29" x2="4650.18" y2="-88.07"/><line class="cls-4" x1="3160.3" y1="735.91" x2="4595.54" y2="-88.07"/><line class="cls-4" x1="4318.93" y1="600.29" x2="3160.3" y2="735.91"/><line class="cls-4" x1="4209.15" y1="1977.7" x2="3059.91" y2="1508.58"/><line class="cls-4" x1="4318.93" y1="600.29" x2="4209.15" y2="1977.7"/><line class="cls-4" x1="3059.91" y1="1508.58" x2="4318.93" y2="600.29"/><line class="cls-4" x1="4209.15" y1="1977.7" x2="3160.3" y2="735.91"/><line class="cls-4" x1="5555.44" y1="1286.54" x2="3160.3" y2="735.91"/><line class="cls-4" x1="4318.93" y1="600.29" x2="5555.44" y2="1286.54"/><line class="cls-4" x1="4209.15" y1="1977.7" x2="5555.44" y2="1286.54"/><line class="cls-4" x1="3484.97" y1="2446.08" x2="4209.15" y2="1977.7"/><line class="cls-4" x1="4943.82" y1="2796.65" x2="3484.97" y2="2446.08"/><line class="cls-4" x1="4209.15" y1="1977.7" x2="4943.82" y2="2796.65"/><line class="cls-4" x1="5555.44" y1="1286.54" x2="4943.82" y2="2796.65"/><line class="cls-4" x1="4209.15" y1="1977.7" x2="5809.31" y2="1945.28"/><line class="cls-4" x1="4943.82" y1="2796.65" x2="5902.97" y2="2500.19"/><line class="cls-4" x1="4209.15" y1="1977.7" x2="5945.9" y2="2522.89"/><line class="cls-4" x1="4943.82" y1="2796.65" x2="5860.04" y2="3268.32"/><line class="cls-4" x1="3614.87" y1="3508.75" x2="4943.82" y2="2796.65"/><line class="cls-4" x1="3484.97" y1="2446.08" x2="3614.87" y2="3508.75"/><line class="cls-4" x1="2700.81" y1="2713.22" x2="3614.87" y2="3508.75"/><line class="cls-4" x1="2302.54" y1="3220.3" x2="2023.61" y2="3935.69"/><line class="cls-4" x1="540.31" y1="3505.8" x2="-52.67" y2="3440.04"/><line class="cls-4" x1="205.59" y1="2070.48" x2="-95.6" y2="2616.56"/><line class="cls-4" x1="540.31" y1="3505.8" x2="-177.56" y2="2854.62"/><line class="cls-4" x1="205.59" y1="2070.48" x2="-185.36" y2="2133.31"/><line class="cls-4" x1="1938.86" y1="412.52" x2="977.67" y2="-45.14"/><line class="cls-4" x1="5809.31" y1="56.33" x2="5249.63" y2="-25.63"/><line class="cls-4" x1="5555.44" y1="1286.54" x2="5809.31" y2="1011.23"/><line class="cls-4" x1="205.59" y1="2070.48" x2="-43.4" y2="1986.04"/><line class="cls-4" x1="5555.44" y1="1286.54" x2="5821.25" y2="2250.29"/><line class="cls-4" x1="5769.94" y1="1262.21" x2="5555.44" y2="1286.54"/><line class="cls-4" x1="5773.74" y1="1412" x2="5555.44" y2="1286.54"/><line class="cls-4" x1="1938.86" y1="412.52" x2="2771.14" y2="-40.16"/></g><g id="Circles-2" data-name="Circles"><circle class="cls-5" cx="834.63" cy="2973.31" r="54.31"/><circle class="cls-5" cx="1371.11" cy="3249.12" r="57.97"/><circle class="cls-5" cx="1875.5" cy="3143.16" r="55.43"/><circle class="cls-5" cx="715.61" cy="3463.59" r="57.65"/><circle class="cls-5" cx="155.45" cy="2953.24" r="50.18"/><circle class="cls-5" cx="0.53" cy="1898.88" r="28.53"/><circle class="cls-5" cx="1525.16" cy="2801.95" r="27.63"/><circle class="cls-5" cx="1122.87" cy="2411.57" r="18.31"/><circle class="cls-5" cx="2054.51" cy="2466.29" r="52.55"/><circle class="cls-5" cx="2528.84" cy="3194.71" r="62.03"/><circle class="cls-5" cx="2850.27" cy="3464.11" r="45.26"/><circle class="cls-5" cx="3325.68" cy="2838.1" r="60.31"/><circle class="cls-5" cx="3384.77" cy="3528.73" r="34.97"/><circle class="cls-5" cx="3905.71" cy="3729.96" r="60.08"/><circle class="cls-5" cx="4265.07" cy="3111.08" r="34.17"/><circle class="cls-5" cx="4908.22" cy="3171.01" r="51.87"/><circle class="cls-5" cx="5491.64" cy="3431.52" r="46.52"/><circle class="cls-5" cx="5124.68" cy="2824.62" r="50.3"/><circle class="cls-5" cx="4956.81" cy="2549.05" r="22.35"/><circle class="cls-5" cx="5447.32" cy="2160.72" r="60.81"/><circle class="cls-5" cx="2406.29" cy="3871.9" r="43.79"/><circle class="cls-5" cx="184.74" cy="748.75" r="53.64"/><circle class="cls-5" cx="363.76" cy="1045.58" r="24.24"/><circle class="cls-5" cx="416.59" cy="378.44" r="55.66"/><circle class="cls-5" cx="1105.24" cy="443.19" r="36.49"/><circle class="cls-5" cx="2109.5" cy="736.08" r="64.04"/><circle class="cls-5" cx="2047.49" cy="-3.68" r="36.65"/><circle class="cls-5" cx="2619.67" cy="64.33" r="47.71"/><circle class="cls-5" cx="2964.27" cy="352.74" r="66.32"/><circle class="cls-5" cx="3471.92" cy="1132.04" r="55.16"/><circle class="cls-5" cx="3663.46" cy="409.48" r="58.24"/><circle class="cls-5" cx="4038.95" cy="773.53" r="29.41"/><circle class="cls-5" cx="4470.01" cy="1191.26" r="19.84"/><circle class="cls-5" cx="4203.23" cy="295.63" r="60.65"/><circle class="cls-5" cx="4778.89" cy="592.13" r="58.17"/><circle class="cls-5" cx="4905.71" cy="64.63" r="60.89"/><circle class="cls-5" cx="5505.73" cy="610.98" r="53.27"/><circle class="cls-5" cx="5671.25" cy="1741.94" r="30.69"/></g><g id="Lines-2" data-name="Lines"><line class="cls-6" x1="3471.92" y1="1132.04" x2="4038.95" y2="773.53"/><line class="cls-7" x1="3471.92" y1="1132.04" x2="3663.46" y2="409.48"/><line class="cls-7" x1="2964.27" y1="352.74" x2="3471.92" y2="1132.04"/><line class="cls-7" x1="3663.46" y1="409.48" x2="2964.27" y2="352.74"/><line class="cls-7" x1="4203.23" y1="295.63" x2="3663.46" y2="409.48"/><line class="cls-7" x1="4038.95" y1="773.53" x2="3663.46" y2="409.48"/><line class="cls-7" x1="4203.23" y1="295.63" x2="4778.89" y2="592.13"/><line class="cls-7" x1="4470.01" y1="1191.26" x2="4038.95" y2="773.53"/><line class="cls-7" x1="4203.23" y1="295.63" x2="4470.01" y2="1191.26"/><line class="cls-7" x1="4778.89" y1="592.13" x2="4470.01" y2="1191.26"/><line class="cls-7" x1="5671.25" y1="1741.94" x2="5505.73" y2="610.98"/><line class="cls-7" x1="4778.89" y1="592.13" x2="5671.25" y2="1741.94"/><line class="cls-7" x1="5505.73" y1="610.98" x2="4778.89" y2="592.13"/><line class="cls-7" x1="4905.71" y1="64.63" x2="4203.23" y2="295.63"/><line class="cls-7" x1="4778.89" y1="592.13" x2="4905.71" y2="64.63"/><line class="cls-7" x1="5505.73" y1="610.98" x2="4905.71" y2="64.63"/><line class="cls-7" x1="5671.25" y1="1741.94" x2="4905.71" y2="64.63"/><line class="cls-7" x1="2964.27" y1="352.74" x2="2619.67" y2="64.33"/><line class="cls-7" x1="2047.49" y1="-3.68" x2="2109.5" y2="736.08"/><line class="cls-7" x1="1105.24" y1="443.19" x2="2047.49" y2="-3.68"/><line class="cls-7" x1="416.59" y1="378.44" x2="1105.24" y2="443.19"/><line class="cls-7" x1="363.76" y1="1045.58" x2="416.59" y2="378.44"/><line class="cls-7" x1="1105.24" y1="443.19" x2="363.76" y2="1045.58"/><line class="cls-7" x1="184.74" y1="748.75" x2="363.76" y2="1045.58"/><line class="cls-8" x1="1105.24" y1="443.19" x2="2109.5" y2="736.08"/><line class="cls-8" x1="2619.67" y1="64.33" x2="2109.5" y2="736.08"/><line class="cls-8" x1="2047.49" y1="-3.68" x2="2619.67" y2="64.33"/><line class="cls-8" x1="0.53" y1="1898.88" x2="155.45" y2="2953.24"/><line class="cls-8" x1="834.63" y1="2973.31" x2="0.53" y2="1898.88"/><line class="cls-8" x1="715.61" y1="3463.59" x2="0.53" y2="1898.88"/><line class="cls-8" x1="155.45" y1="2953.24" x2="715.61" y2="3463.59"/><line class="cls-8" x1="834.63" y1="2973.31" x2="715.61" y2="3463.59"/><line class="cls-8" x1="1371.11" y1="3249.12" x2="715.61" y2="3463.59"/><line class="cls-8" x1="1122.87" y1="2411.57" x2="834.63" y2="2973.31"/><line class="cls-8" x1="1525.16" y1="2801.95" x2="1122.87" y2="2411.57"/><line class="cls-8" x1="1875.5" y1="3143.16" x2="1371.11" y2="3249.12"/><line class="cls-8" x1="834.63" y1="2973.31" x2="1371.11" y2="3249.12"/><line class="cls-8" x1="1122.87" y1="2411.57" x2="1371.11" y2="3249.12"/><line class="cls-8" x1="2406.29" y1="3871.9" x2="1371.11" y2="3249.12"/><line class="cls-8" x1="1875.5" y1="3143.16" x2="2406.29" y2="3871.9"/><line class="cls-8" x1="2528.84" y1="3194.71" x2="2406.29" y2="3871.9"/><line class="cls-8" x1="1525.16" y1="2801.95" x2="1875.5" y2="3143.16"/><line class="cls-8" x1="2054.51" y1="2466.29" x2="1525.16" y2="2801.95"/><line class="cls-8" x1="1875.5" y1="3143.16" x2="2054.51" y2="2466.29"/><line class="cls-8" x1="2528.84" y1="3194.71" x2="2054.51" y2="2466.29"/><line class="cls-8" x1="1875.5" y1="3143.16" x2="2528.84" y2="3194.71"/><line class="cls-8" x1="2850.27" y1="3464.11" x2="3325.68" y2="2838.1"/><line class="cls-8" x1="3384.77" y1="3528.73" x2="3325.68" y2="2838.1"/><line class="cls-8" x1="2850.27" y1="3464.11" x2="3384.77" y2="3528.73"/><line class="cls-8" x1="3905.71" y1="3729.96" x2="3384.77" y2="3528.73"/><line class="cls-8" x1="3325.68" y1="2838.1" x2="4265.07" y2="3111.08"/><line class="cls-8" x1="3905.71" y1="3729.96" x2="4265.07" y2="3111.08"/><line class="cls-8" x1="4908.22" y1="3171.01" x2="3905.71" y2="3729.96"/><line class="cls-8" x1="4265.07" y1="3111.08" x2="4908.22" y2="3171.01"/><line class="cls-8" x1="4956.81" y1="2549.05" x2="4265.07" y2="3111.08"/><line class="cls-8" x1="4908.22" y1="3171.01" x2="4956.81" y2="2549.05"/><line class="cls-8" x1="5124.68" y1="2824.62" x2="4956.81" y2="2549.05"/><line class="cls-8" x1="5491.64" y1="3431.52" x2="5124.68" y2="2824.62"/><line class="cls-8" x1="4908.22" y1="3171.01" x2="5491.64" y2="3431.52"/><line class="cls-8" x1="3905.71" y1="3729.96" x2="5491.64" y2="3431.52"/><line class="cls-8" x1="5124.68" y1="2824.62" x2="5447.32" y2="2160.72"/><line class="cls-9" x1="2619.67" y1="64.33" x2="2619.67" y2="64.33"/><line class="cls-8" x1="2619.67" y1="64.33" x2="2701.84" y2="-10.51"/><line class="cls-8" x1="2578.3" y1="-12.73" x2="2619.67" y2="64.33"/><line class="cls-8" x1="2964.27" y1="352.74" x2="3036.17" y2="-35.31"/><line class="cls-8" x1="2619.67" y1="64.33" x2="2673.49" y2="-36.39"/><line class="cls-8" x1="3663.46" y1="409.48" x2="3346.73" y2="-25.53"/><line class="cls-8" x1="4203.23" y1="295.63" x2="3663.46" y2="-29.88"/><line class="cls-8" x1="3663.46" y1="409.48" x2="3876.63" y2="-22.27"/><line class="cls-8" x1="4203.23" y1="295.63" x2="3991.73" y2="-8.16"/><line class="cls-8" x1="4905.71" y1="64.63" x2="4842.3" y2="-9.24"/><line class="cls-8" x1="4203.23" y1="295.63" x2="4211.08" y2="-28.79"/><line class="cls-8" x1="4905.71" y1="64.63" x2="4978.79" y2="-16.85"/><line class="cls-8" x1="4203.23" y1="295.63" x2="4427.17" y2="-11.42"/><line class="cls-8" x1="4905.71" y1="64.63" x2="5109.09" y2="-7.07"/><line class="cls-8" x1="5505.73" y1="610.98" x2="5713.61" y2="-14.47"/><line class="cls-8" x1="5671.25" y1="1741.94" x2="5776.34" y2="1536.64"/><line class="cls-8" x1="5505.73" y1="610.98" x2="5771.25" y2="795.84"/><line class="cls-8" x1="5671.25" y1="1741.94" x2="5772.95" y2="1670.56"/><line class="cls-8" x1="1105.24" y1="443.19" x2="1371.9" y2="-17.03"/><line class="cls-8" x1="416.59" y1="378.44" x2="443.74" y2="-34.64"/><line class="cls-8" x1="1105.24" y1="443.19" x2="795.98" y2="-17.03"/><line class="cls-8" x1="416.59" y1="378.44" x2="1125.33" y2="-17.03"/><line class="cls-8" x1="184.74" y1="748.75" x2="-19.46" y2="410.81"/><line class="cls-8" x1="416.59" y1="378.44" x2="-24.74" y2="180.7"/><line class="cls-8" x1="184.74" y1="748.75" x2="-22.98" y2="1175.31"/><line class="cls-8" x1="-22.98" y1="63.98" x2="371.53" y2="-9.99"/><line class="cls-8" x1="184.74" y1="748.75" x2="-77.58" y2="695.11"/><line class="cls-8" x1="155.45" y1="2953.24" x2="-61.4" y2="2804.73"/><line class="cls-8" x1="715.61" y1="3463.59" x2="-84.62" y2="3751.28"/><line class="cls-8" x1="155.45" y1="2953.24" x2="-18.33" y2="3476.37"/><line class="cls-8" x1="715.61" y1="3463.59" x2="371.63" y2="3854.62"/><line class="cls-8" x1="1371.11" y1="3249.12" x2="913.66" y2="3876.07"/><line class="cls-8" x1="715.61" y1="3463.59" x2="1054.05" y2="3860.47"/><line class="cls-8" x1="1371.11" y1="3249.12" x2="1358.21" y2="3856.57"/><line class="cls-8" x1="1875.5" y1="3143.16" x2="1514.19" y2="3874.12"/><line class="cls-8" x1="1371.11" y1="3249.12" x2="1798.86" y2="3858.52"/><line class="cls-8" x1="2850.27" y1="3464.11" x2="2623.04" y2="3898.89"/><line class="cls-8" x1="3384.77" y1="3528.73" x2="3011.62" y2="3871.9"/><line class="cls-8" x1="2850.27" y1="3464.11" x2="3072.06" y2="3871.9"/><line class="cls-8" x1="3384.77" y1="3528.73" x2="3306.03" y2="3871.9"/><line class="cls-8" x1="3905.71" y1="3729.96" x2="3709.63" y2="3862.42"/><line class="cls-8" x1="4265.07" y1="3111.08" x2="4768.36" y2="3860.47"/><line class="cls-8" x1="4908.22" y1="3171.01" x2="4856.35" y2="3963.81"/><line class="cls-8" x1="5491.64" y1="3431.52" x2="4945.79" y2="3909.21"/><line class="cls-8" x1="3905.71" y1="3729.96" x2="4460.29" y2="3881.92"/><line class="cls-8" x1="5491.64" y1="3431.52" x2="5559.96" y2="3879.97"/><line class="cls-8" x1="3905.71" y1="3729.96" x2="3951.4" y2="3881.92"/><line class="cls-8" x1="5491.64" y1="3431.52" x2="5778.34" y2="3622.6"/><line class="cls-8" x1="3905.71" y1="3729.96" x2="3832.47" y2="3866.32"/><line class="cls-8" x1="5491.64" y1="3431.52" x2="5793.94" y2="3141.05"/><line class="cls-8" x1="5124.68" y1="2824.62" x2="5786.14" y2="2955.78"/><line class="cls-8" x1="5447.32" y1="2160.72" x2="5782.24" y2="2708.16"/><path class="cls-8" d="M2850.27,3464.11l-321.43-269.4Z"/><line class="cls-8" x1="3384.77" y1="3528.73" x2="4265.07" y2="3111.08"/><line class="cls-8" x1="2406.29" y1="3871.9" x2="2850.27" y2="3464.11"/><line class="cls-8" x1="155.45" y1="2953.24" x2="834.63" y2="2973.31"/></g><g id="Triangles"><polyline class="cls-10" points="2850.27 3464.11 2406.29 3871.9 2528.84 3194.71 2850.27 3464.11"/><path class="cls-10" d="M1875.5,3143.16,1525.16,2802l529.35-335.66Z"/><path class="cls-10" d="M1371.11,3249.12,834.63,2973.31l288.24-561.74Q1247,2830.34,1371.11,3249.12Z"/><path class="cls-10" d="M715.61,3463.59l-344,391c-99.16,80-228.55,97.93-328.22,45.57-83.51-43.87-117.73-122.14-128-148.91Z"/><path class="cls-10" d="M3905.71,3730l-520.94-201.23,880.3-417.65Z"/><path class="cls-10" d="M5954.29,2989.2l-829.61-164.58q161.32-331.95,322.64-663.9Z"/><path class="cls-10" d="M4039,773.53l-567,358.51,191.54-722.56Z"/><path class="cls-10" d="M4778.89,592.13,4470,1191.26q-133.4-447.81-266.78-895.63Z"/><path class="cls-10" d="M3099.44-373.58q-67.59,363.17-135.17,726.32L2619.67,64.33Z"/><path class="cls-10" d="M1371.9-17,2047.49-3.68,1105.24,443.19Q1238.56,213.07,1371.9-17Z"/><path class="cls-10" d="M184.74,748.75-23,1175.31l-54.6-480.2Z"/><path class="cls-10" d="M5773,1670.56l-101.7,71.38,105.09-205.3Z"/></g></svg>