<svg xmlns="http://www.w3.org/2000/svg" xmlns:xlink="http://www.w3.org/1999/xlink" viewBox="0 0 7680 3840"><defs><style>.cls-1{fill:url(#linear-gradient);}.cls-2{fill:url(#linear-gradient-2);}.cls-10,.cls-3,.cls-5,.cls-6,.cls-7{fill:#fff;}.cls-3,.cls-4{opacity:0.1;}.cls-4,.cls-8,.cls-9{fill:none;}.cls-10,.cls-4,.cls-6,.cls-7,.cls-8{stroke:#fff;stroke-width:3px;}.cls-10,.cls-4,.cls-7,.cls-8,.cls-9{stroke-miterlimit:10;}.cls-9{stroke:#000;}.cls-10{opacity:0.2;}</style><linearGradient id="linear-gradient" x1="3840" y1="-256.54" x2="3840" y2="2694.39" gradientUnits="userSpaceOnUse"><stop offset="0" stop-color="#3d7189"/><stop offset="0.33" stop-color="#7198a7"/><stop offset="0.59" stop-color="#9db8c1"/></linearGradient><linearGradient id="linear-gradient-2" x1="3840" y1="1817.06" x2="3840" y2="4053.66" gradientTransform="matrix(1, 0, 0, -1, 0, 5914.59)" gradientUnits="userSpaceOnUse"><stop offset="0" stop-color="#466579"/><stop offset="0.49" stop-color="#7a97a4"/><stop offset="0.79" stop-color="#9db8c1"/></linearGradient></defs><title>Sea Circles Wide-02</title><g id="Layer_8" data-name="Layer 8"><rect class="cls-1" width="7680" height="1920"/><rect class="cls-2" y="1912.58" width="7680" height="1927.42"/></g><g id="Circles"><circle class="cls-3" cx="4996.48" cy="1524.12" r="93.14"/><circle class="cls-3" cx="5096.87" cy="751.44" r="96.31"/><circle class="cls-3" cx="6255.51" cy="615.82" r="95.98"/><circle class="cls-3" cx="6145.73" cy="1993.23" r="91.05"/><circle class="cls-3" cx="5421.54" cy="2461.61" r="54.12"/><circle class="cls-3" cx="2700.81" cy="2713.22" r="68.51"/><circle class="cls-3" cx="2302.54" cy="3220.3" r="96.15"/><circle class="cls-3" cx="1334.1" cy="3505.04" r="84.21"/><circle class="cls-3" cx="540.31" cy="3505.8" r="87.7"/><circle class="cls-3" cx="205.59" cy="2070.48" r="62.82"/><circle class="cls-3" cx="63.09" cy="1178.33" r="93.05"/><circle class="cls-3" cx="1938.86" cy="412.52" r="87.22"/><circle class="cls-3" cx="7492.01" cy="1302.08" r="76.72"/><circle class="cls-3" cx="6880.39" cy="2812.18" r="52.45"/><circle class="cls-3" cx="5551.45" cy="3524.29" r="92.63"/><circle class="cls-3" cx="1900.22" cy="2242.84" r="63.89"/><circle class="cls-3" cx="1494.62" cy="1261.81" r="91.92"/><circle class="cls-3" cx="3431.19" cy="1277.34" r="54.12"/></g><g id="Lines"><line class="cls-4" x1="1494.62" y1="1261.81" x2="1938.86" y2="412.52"/><line class="cls-4" x1="4996.48" y1="1524.12" x2="3431.19" y2="1277.34"/><line class="cls-4" x1="5096.87" y1="751.44" x2="4996.48" y2="1524.12"/><line class="cls-4" x1="3875.43" y1="428.06" x2="5096.87" y2="751.44"/><line class="cls-4" x1="3431.19" y1="1277.34" x2="5096.87" y2="751.44"/><line class="cls-4" x1="63.09" y1="1178.33" x2="1494.62" y2="1261.81"/><line class="cls-4" x1="205.59" y1="2070.48" x2="63.09" y2="1178.33"/><line class="cls-4" x1="1900.22" y1="2242.84" x2="1494.62" y2="1261.81"/><line class="cls-4" x1="205.59" y1="2070.48" x2="1900.22" y2="2242.84"/><line class="cls-4" x1="1494.62" y1="1261.81" x2="205.59" y2="2070.48"/><line class="cls-4" x1="540.31" y1="3505.8" x2="1494.62" y2="1261.81"/><line class="cls-4" x1="2700.81" y1="2713.22" x2="1900.22" y2="2242.84"/><line class="cls-4" x1="1334.1" y1="3505.04" x2="540.31" y2="3505.8"/><line class="cls-4" x1="1900.22" y1="2242.84" x2="540.31" y2="3505.8"/><line class="cls-4" x1="1334.1" y1="3505.04" x2="1900.22" y2="2242.84"/><line class="cls-4" x1="205.59" y1="2070.48" x2="1334.1" y2="3505.04"/><line class="cls-4" x1="2302.54" y1="3220.3" x2="1334.1" y2="3505.04"/><line class="cls-4" x1="2700.81" y1="2713.22" x2="2302.54" y2="3220.3"/><line class="cls-4" x1="1900.22" y1="2242.84" x2="2302.54" y2="3220.3"/><line class="cls-4" x1="1334.1" y1="3505.04" x2="1543.57" y2="3923.99"/><line class="cls-4" x1="540.31" y1="3505.8" x2="505.43" y2="3939.6"/><line class="cls-4" x1="1334.1" y1="3505.04" x2="1052.9" y2="3920.08"/><line class="cls-4" x1="540.31" y1="3505.8" x2="205.59" y2="2070.48"/><line class="cls-4" x1="2700.81" y1="2713.22" x2="4996.48" y2="1524.12"/><line class="cls-4" x1="4637.38" y1="2728.75" x2="4996.48" y2="1524.12"/><line class="cls-4" x1="5421.54" y1="2461.61" x2="4996.48" y2="1524.12"/><line class="cls-4" x1="2700.81" y1="2713.22" x2="1494.62" y2="1261.81"/><line class="cls-4" x1="5421.54" y1="2461.61" x2="4637.38" y2="2728.75"/><line class="cls-4" x1="3431.19" y1="1277.34" x2="5421.54" y2="2461.61"/><line class="cls-4" x1="63.09" y1="1178.33" x2="769.85" y2="-60.75"/><line class="cls-4" x1="1494.62" y1="1261.81" x2="-68.28" y2="103.17"/><line class="cls-4" x1="1938.86" y1="412.52" x2="63.09" y2="1178.33"/><line class="cls-4" x1="5096.87" y1="751.44" x2="4877.34" y2="-64.73"/><line class="cls-4" x1="6255.51" y1="615.82" x2="6586.76" y2="-72.54"/><line class="cls-4" x1="5096.87" y1="751.44" x2="6532.12" y2="-72.54"/><line class="cls-4" x1="6255.51" y1="615.82" x2="5096.87" y2="751.44"/><line class="cls-4" x1="6145.73" y1="1993.23" x2="4996.48" y2="1524.12"/><line class="cls-4" x1="6255.51" y1="615.82" x2="6145.73" y2="1993.23"/><line class="cls-4" x1="4996.48" y1="1524.12" x2="6255.51" y2="615.82"/><line class="cls-4" x1="6145.73" y1="1993.23" x2="5096.87" y2="751.44"/><line class="cls-4" x1="7492.01" y1="1302.08" x2="5096.87" y2="751.44"/><line class="cls-4" x1="6255.51" y1="615.82" x2="7492.01" y2="1302.08"/><line class="cls-4" x1="6145.73" y1="1993.23" x2="7492.01" y2="1302.08"/><line class="cls-4" x1="5421.54" y1="2461.61" x2="6145.73" y2="1993.23"/><line class="cls-4" x1="6880.39" y1="2812.18" x2="5421.54" y2="2461.61"/><line class="cls-4" x1="6145.73" y1="1993.23" x2="6880.39" y2="2812.18"/><line class="cls-4" x1="7492.01" y1="1302.08" x2="6880.39" y2="2812.18"/><line class="cls-4" x1="6145.73" y1="1993.23" x2="7745.88" y2="1960.81"/><line class="cls-4" x1="6880.39" y1="2812.18" x2="7839.55" y2="2515.73"/><line class="cls-4" x1="6145.73" y1="1993.23" x2="7882.48" y2="2538.42"/><line class="cls-4" x1="6880.39" y1="2812.18" x2="7796.62" y2="3283.85"/><line class="cls-4" x1="5551.45" y1="3524.29" x2="6880.39" y2="2812.18"/><line class="cls-4" x1="5421.54" y1="2461.61" x2="5551.45" y2="3524.29"/><line class="cls-4" x1="4637.38" y1="2728.75" x2="5551.45" y2="3524.29"/><line class="cls-4" x1="2302.54" y1="3220.3" x2="2023.61" y2="3935.69"/><line class="cls-4" x1="540.31" y1="3505.8" x2="-52.67" y2="3440.04"/><line class="cls-4" x1="205.59" y1="2070.48" x2="-95.6" y2="2616.56"/><line class="cls-4" x1="540.31" y1="3505.8" x2="-177.56" y2="2854.62"/><line class="cls-4" x1="205.59" y1="2070.48" x2="-185.36" y2="2133.31"/><line class="cls-4" x1="1938.86" y1="412.52" x2="977.67" y2="-45.14"/><line class="cls-4" x1="7745.88" y1="71.87" x2="7186.2" y2="-10.09"/><line class="cls-4" x1="7492.01" y1="1302.08" x2="7745.88" y2="1026.76"/><line class="cls-4" x1="205.59" y1="2070.48" x2="-43.4" y2="1986.04"/><line class="cls-4" x1="7492.01" y1="1302.08" x2="7757.83" y2="2265.83"/><line class="cls-4" x1="7706.51" y1="1277.74" x2="7492.01" y2="1302.08"/><line class="cls-4" x1="7710.32" y1="1427.53" x2="7492.01" y2="1302.08"/><line class="cls-4" x1="1938.86" y1="412.52" x2="2771.14" y2="-40.16"/><line class="cls-4" x1="1900.22" y1="2242.84" x2="3431.19" y2="1277.34"/><line class="cls-4" x1="1938.86" y1="412.52" x2="3431.19" y2="1277.34"/></g><g id="Circles-2" data-name="Circles"><circle class="cls-5" cx="834.63" cy="2973.31" r="54.31"/><circle class="cls-5" cx="1371.11" cy="3249.12" r="57.97"/><circle class="cls-5" cx="1875.5" cy="3143.16" r="55.43"/><circle class="cls-5" cx="715.61" cy="3463.59" r="57.65"/><circle class="cls-5" cx="155.45" cy="2953.24" r="50.18"/><circle class="cls-5" cx="0.53" cy="1898.88" r="28.53"/><circle class="cls-5" cx="1525.16" cy="2801.95" r="27.63"/><circle class="cls-5" cx="1122.87" cy="2411.57" r="18.31"/><circle class="cls-5" cx="2054.51" cy="2466.29" r="52.55"/><circle class="cls-5" cx="2528.84" cy="3194.71" r="62.03"/><circle class="cls-5" cx="2850.27" cy="3464.11" r="45.26"/><circle class="cls-5" cx="5262.26" cy="2853.63" r="60.31"/><circle class="cls-5" cx="5321.34" cy="3544.26" r="34.97"/><circle class="cls-5" cx="5842.29" cy="3745.49" r="60.08"/><circle class="cls-5" cx="6201.64" cy="3126.62" r="34.17"/><circle class="cls-5" cx="6844.8" cy="3186.54" r="51.87"/><circle class="cls-5" cx="7428.22" cy="3447.05" r="46.52"/><circle class="cls-5" cx="7061.26" cy="2840.16" r="50.3"/><circle class="cls-5" cx="6893.38" cy="2564.58" r="22.35"/><circle class="cls-5" cx="7383.9" cy="2176.25" r="60.81"/><circle class="cls-5" cx="2406.29" cy="3871.9" r="43.79"/><circle class="cls-5" cx="184.74" cy="748.75" r="53.64"/><circle class="cls-5" cx="363.76" cy="1045.58" r="24.24"/><circle class="cls-5" cx="416.59" cy="378.44" r="55.66"/><circle class="cls-5" cx="1105.24" cy="443.19" r="36.49"/><circle class="cls-5" cx="2109.5" cy="736.08" r="64.04"/><circle class="cls-5" cx="2047.49" cy="-3.68" r="36.65"/><circle class="cls-5" cx="2619.67" cy="64.33" r="47.71"/><circle class="cls-5" cx="4900.84" cy="368.27" r="66.32"/><circle class="cls-5" cx="5408.5" cy="1147.58" r="55.16"/><circle class="cls-5" cx="5600.04" cy="425.01" r="58.24"/><circle class="cls-5" cx="5975.52" cy="789.07" r="29.41"/><circle class="cls-5" cx="6406.59" cy="1206.79" r="19.84"/><circle class="cls-5" cx="6139.81" cy="311.16" r="60.65"/><circle class="cls-5" cx="6715.46" cy="607.66" r="58.17"/><circle class="cls-5" cx="6842.29" cy="80.17" r="60.89"/><circle class="cls-5" cx="7442.3" cy="626.52" r="53.27"/><circle class="cls-5" cx="7607.82" cy="1757.48" r="30.69"/><circle class="cls-5" cx="4022.6" cy="3578" r="60.31"/><circle class="cls-5" cx="3282.44" cy="2713.22" r="27.63"/><circle class="cls-5" cx="3454.33" cy="3198.59" r="57.65"/><circle class="cls-5" cx="4375.51" cy="3015.69" r="34.97"/><circle class="cls-5" cx="4786.84" cy="3479.64" r="51.87"/><circle class="cls-5" cx="3195.76" cy="789.07" r="36.49"/><circle class="cls-5" cx="4451.86" cy="736.08" r="55.16"/><circle class="cls-5" cx="3840" cy="311.16" r="60.65"/></g><g id="Lines-2" data-name="Lines"><line class="cls-6" x1="5408.5" y1="1147.58" x2="5975.52" y2="789.07"/><line class="cls-7" x1="5408.5" y1="1147.58" x2="5600.04" y2="425.01"/><line class="cls-7" x1="4900.84" y1="368.27" x2="5408.5" y2="1147.58"/><line class="cls-7" x1="5600.04" y1="425.01" x2="4900.84" y2="368.27"/><line class="cls-7" x1="6139.81" y1="311.16" x2="5600.04" y2="425.01"/><line class="cls-7" x1="5975.52" y1="789.07" x2="5600.04" y2="425.01"/><line class="cls-7" x1="6139.81" y1="311.16" x2="6715.46" y2="607.66"/><line class="cls-7" x1="6406.59" y1="1206.79" x2="5975.52" y2="789.07"/><line class="cls-7" x1="6139.81" y1="311.16" x2="6406.59" y2="1206.79"/><line class="cls-7" x1="6715.46" y1="607.66" x2="6406.59" y2="1206.79"/><line class="cls-7" x1="7607.82" y1="1757.48" x2="7442.3" y2="626.52"/><line class="cls-7" x1="6715.46" y1="607.66" x2="7607.82" y2="1757.48"/><line class="cls-7" x1="7442.3" y1="626.52" x2="6715.46" y2="607.66"/><line class="cls-7" x1="6842.29" y1="80.17" x2="6139.81" y2="311.16"/><line class="cls-7" x1="6715.46" y1="607.66" x2="6842.29" y2="80.17"/><line class="cls-7" x1="7442.3" y1="626.52" x2="6842.29" y2="80.17"/><line class="cls-7" x1="7607.82" y1="1757.48" x2="6842.29" y2="80.17"/><line class="cls-7" x1="4900.84" y1="368.27" x2="4381.87" y2="-65.11"/><line class="cls-7" x1="2047.49" y1="-3.68" x2="2109.5" y2="736.08"/><line class="cls-7" x1="1105.24" y1="443.19" x2="2047.49" y2="-3.68"/><line class="cls-7" x1="416.59" y1="378.44" x2="1105.24" y2="443.19"/><line class="cls-7" x1="363.76" y1="1045.58" x2="416.59" y2="378.44"/><line class="cls-7" x1="1105.24" y1="443.19" x2="363.76" y2="1045.58"/><line class="cls-7" x1="184.74" y1="748.75" x2="363.76" y2="1045.58"/><line class="cls-8" x1="1105.24" y1="443.19" x2="2109.5" y2="736.08"/><line class="cls-8" x1="2619.67" y1="64.33" x2="2109.5" y2="736.08"/><line class="cls-8" x1="2047.49" y1="-3.68" x2="2619.67" y2="64.33"/><line class="cls-8" x1="0.53" y1="1898.88" x2="155.45" y2="2953.24"/><line class="cls-8" x1="834.63" y1="2973.31" x2="0.53" y2="1898.88"/><line class="cls-8" x1="715.61" y1="3463.59" x2="0.53" y2="1898.88"/><line class="cls-8" x1="155.45" y1="2953.24" x2="715.61" y2="3463.59"/><line class="cls-8" x1="834.63" y1="2973.31" x2="715.61" y2="3463.59"/><line class="cls-8" x1="1371.11" y1="3249.12" x2="715.61" y2="3463.59"/><line class="cls-8" x1="1122.87" y1="2411.57" x2="834.63" y2="2973.31"/><line class="cls-8" x1="1525.16" y1="2801.95" x2="1122.87" y2="2411.57"/><line class="cls-8" x1="1875.5" y1="3143.16" x2="1371.11" y2="3249.12"/><line class="cls-8" x1="834.63" y1="2973.31" x2="1371.11" y2="3249.12"/><line class="cls-8" x1="1122.87" y1="2411.57" x2="1371.11" y2="3249.12"/><line class="cls-8" x1="2406.29" y1="3871.9" x2="1371.11" y2="3249.12"/><line class="cls-8" x1="1875.5" y1="3143.16" x2="2406.29" y2="3871.9"/><line class="cls-8" x1="2528.84" y1="3194.71" x2="2406.29" y2="3871.9"/><line class="cls-8" x1="1525.16" y1="2801.95" x2="1875.5" y2="3143.16"/><line class="cls-8" x1="2054.51" y1="2466.29" x2="1525.16" y2="2801.95"/><line class="cls-8" x1="1875.5" y1="3143.16" x2="2054.51" y2="2466.29"/><line class="cls-8" x1="2528.84" y1="3194.71" x2="2054.51" y2="2466.29"/><line class="cls-8" x1="1875.5" y1="3143.16" x2="2528.84" y2="3194.71"/><line class="cls-8" x1="4786.84" y1="3479.64" x2="5262.26" y2="2853.63"/><line class="cls-8" x1="5321.34" y1="3544.26" x2="5262.26" y2="2853.63"/><line class="cls-8" x1="4786.84" y1="3479.64" x2="5321.34" y2="3544.26"/><line class="cls-8" x1="5842.29" y1="3745.49" x2="5321.34" y2="3544.26"/><line class="cls-8" x1="5842.29" y1="3745.49" x2="6201.64" y2="3126.62"/><line class="cls-8" x1="6844.8" y1="3186.54" x2="5842.29" y2="3745.49"/><line class="cls-8" x1="6201.64" y1="3126.62" x2="6844.8" y2="3186.54"/><line class="cls-8" x1="6893.38" y1="2564.58" x2="6201.64" y2="3126.62"/><line class="cls-8" x1="6844.8" y1="3186.54" x2="6893.38" y2="2564.58"/><line class="cls-8" x1="7061.26" y1="2840.16" x2="6893.38" y2="2564.58"/><line class="cls-8" x1="7428.22" y1="3447.05" x2="7061.26" y2="2840.16"/><line class="cls-8" x1="6844.8" y1="3186.54" x2="7428.22" y2="3447.05"/><line class="cls-8" x1="5842.29" y1="3745.49" x2="7428.22" y2="3447.05"/><line class="cls-8" x1="7061.26" y1="2840.16" x2="7383.9" y2="2176.25"/><line class="cls-9" x1="2619.67" y1="64.33" x2="2619.67" y2="64.33"/><line class="cls-8" x1="2619.67" y1="64.33" x2="2701.84" y2="-10.51"/><line class="cls-8" x1="2578.3" y1="-12.73" x2="2619.67" y2="64.33"/><line class="cls-8" x1="4900.84" y1="368.27" x2="4972.74" y2="-19.77"/><line class="cls-8" x1="2619.67" y1="64.33" x2="2673.49" y2="-36.39"/><line class="cls-8" x1="5600.04" y1="425.01" x2="5283.3" y2="-10"/><line class="cls-8" x1="6139.81" y1="311.16" x2="5600.04" y2="-14.34"/><line class="cls-8" x1="5600.04" y1="425.01" x2="5813.2" y2="-6.74"/><line class="cls-8" x1="6139.81" y1="311.16" x2="5928.31" y2="7.37"/><line class="cls-8" x1="6842.29" y1="80.17" x2="6778.88" y2="6.29"/><line class="cls-8" x1="6139.81" y1="311.16" x2="6147.65" y2="-13.26"/><line class="cls-8" x1="6842.29" y1="80.17" x2="6915.36" y2="-1.31"/><line class="cls-8" x1="6139.81" y1="311.16" x2="6363.74" y2="4.12"/><line class="cls-8" x1="6842.29" y1="80.17" x2="7045.67" y2="8.46"/><line class="cls-8" x1="7442.3" y1="626.52" x2="7650.19" y2="1.06"/><line class="cls-8" x1="7607.82" y1="1757.48" x2="7712.91" y2="1552.17"/><line class="cls-8" x1="7442.3" y1="626.52" x2="7707.83" y2="811.37"/><line class="cls-8" x1="7607.82" y1="1757.48" x2="7709.52" y2="1686.09"/><line class="cls-8" x1="1105.24" y1="443.19" x2="1371.9" y2="-17.03"/><line class="cls-8" x1="416.59" y1="378.44" x2="443.74" y2="-34.64"/><line class="cls-8" x1="1105.24" y1="443.19" x2="795.98" y2="-17.03"/><line class="cls-8" x1="416.59" y1="378.44" x2="1125.33" y2="-17.03"/><line class="cls-8" x1="184.74" y1="748.75" x2="-19.46" y2="410.81"/><line class="cls-8" x1="416.59" y1="378.44" x2="-24.74" y2="180.7"/><line class="cls-8" x1="184.74" y1="748.75" x2="-22.98" y2="1175.31"/><line class="cls-8" x1="-22.98" y1="63.98" x2="371.53" y2="-9.99"/><line class="cls-8" x1="184.74" y1="748.75" x2="-77.58" y2="695.11"/><line class="cls-8" x1="155.45" y1="2953.24" x2="-61.4" y2="2804.73"/><line class="cls-8" x1="715.61" y1="3463.59" x2="-84.62" y2="3751.28"/><line class="cls-8" x1="155.45" y1="2953.24" x2="-18.33" y2="3476.37"/><line class="cls-8" x1="715.61" y1="3463.59" x2="371.63" y2="3854.62"/><line class="cls-8" x1="1371.11" y1="3249.12" x2="913.66" y2="3876.07"/><line class="cls-8" x1="715.61" y1="3463.59" x2="1054.05" y2="3860.47"/><line class="cls-8" x1="1371.11" y1="3249.12" x2="1358.21" y2="3856.57"/><line class="cls-8" x1="1875.5" y1="3143.16" x2="1514.19" y2="3874.12"/><line class="cls-8" x1="1371.11" y1="3249.12" x2="1798.86" y2="3858.52"/><line class="cls-8" x1="2850.27" y1="3464.11" x2="2623.04" y2="3898.89"/><line class="cls-8" x1="5321.34" y1="3544.26" x2="4948.19" y2="3887.43"/><line class="cls-8" x1="5321.34" y1="3544.26" x2="5242.6" y2="3887.43"/><line class="cls-8" x1="5842.29" y1="3745.49" x2="5646.21" y2="3877.95"/><line class="cls-8" x1="6201.64" y1="3126.62" x2="6704.93" y2="3876"/><line class="cls-8" x1="6844.8" y1="3186.54" x2="6792.92" y2="3979.34"/><line class="cls-8" x1="7428.22" y1="3447.05" x2="6882.36" y2="3924.75"/><line class="cls-8" x1="5842.29" y1="3745.49" x2="6396.87" y2="3897.45"/><line class="cls-8" x1="7428.22" y1="3447.05" x2="7496.54" y2="3895.5"/><line class="cls-8" x1="5842.29" y1="3745.49" x2="5887.98" y2="3897.45"/><line class="cls-8" x1="7428.22" y1="3447.05" x2="7714.91" y2="3638.13"/><line class="cls-8" x1="5842.29" y1="3745.49" x2="5769.04" y2="3881.85"/><line class="cls-8" x1="7428.22" y1="3447.05" x2="7730.51" y2="3156.58"/><line class="cls-8" x1="7061.26" y1="2840.16" x2="7722.71" y2="2971.31"/><line class="cls-8" x1="7383.9" y1="2176.25" x2="7718.81" y2="2723.69"/><path class="cls-8" d="M2850.27,3464.11l-321.43-269.4Z"/><line class="cls-8" x1="5321.34" y1="3544.26" x2="6201.64" y2="3126.62"/><line class="cls-8" x1="2406.29" y1="3871.9" x2="2850.27" y2="3464.11"/><line class="cls-8" x1="155.45" y1="2953.24" x2="834.63" y2="2973.31"/><line class="cls-8" x1="4786.84" y1="3479.64" x2="4375.51" y2="3015.69"/><line class="cls-8" x1="2528.84" y1="3194.71" x2="3282.44" y2="2713.22"/><line class="cls-8" x1="3454.33" y1="3198.59" x2="3282.44" y2="2713.22"/><line class="cls-8" x1="4022.6" y1="3578" x2="3454.33" y2="3198.59"/><line class="cls-8" x1="4022.6" y1="3578" x2="4786.84" y2="3479.64"/><line class="cls-8" x1="4987.33" y1="3906.71" x2="4786.84" y2="3479.64"/><line class="cls-8" x1="3829.58" y1="3922.57" x2="4022.6" y2="3578"/><line class="cls-8" x1="4495.68" y1="4044.91" x2="4022.6" y2="3578"/><line class="cls-8" x1="4375.51" y1="3015.69" x2="4022.6" y2="3578"/><line class="cls-8" x1="2850.27" y1="3464.11" x2="3379.34" y2="3955.88"/><line class="cls-8" x1="3454.33" y1="3198.59" x2="2850.27" y2="3464.11"/><line class="cls-8" x1="3379.34" y1="3955.88" x2="3454.33" y2="3198.59"/><line class="cls-8" x1="4022.6" y1="3578" x2="3379.34" y2="3955.88"/><line class="cls-8" x1="2528.84" y1="3194.71" x2="3454.33" y2="3198.59"/><line class="cls-8" x1="4375.51" y1="3015.69" x2="5262.26" y2="2853.63"/><line class="cls-8" x1="5408.5" y1="1147.58" x2="4451.86" y2="736.08"/><line class="cls-8" x1="4900.84" y1="368.27" x2="4451.86" y2="736.08"/><line class="cls-8" x1="3840" y1="311.16" x2="4451.86" y2="736.08"/><line class="cls-8" x1="4015.5" y1="-441.39" x2="3840" y2="311.16"/><line class="cls-8" x1="2619.67" y1="64.33" x2="3840" y2="311.16"/><line class="cls-8" x1="3195.76" y1="789.07" x2="2619.67" y2="64.33"/><line class="cls-8" x1="3840" y1="311.16" x2="3195.76" y2="789.07"/><line class="cls-8" x1="4451.86" y1="736.08" x2="4240.51" y2="-253.05"/><line class="cls-8" x1="3840" y1="311.16" x2="4900.84" y2="368.27"/></g><g id="Triangles"><polyline class="cls-10" points="2850.27 3464.11 2528.84 3194.71 2406.29 3871.9 2850.27 3464.11"/><path class="cls-10" d="M1875.5,3143.16,1525.16,2802l529.35-335.66Z"/><path class="cls-10" d="M1371.11,3249.12,834.63,2973.31l288.24-561.74Q1247,2830.34,1371.11,3249.12Z"/><path class="cls-10" d="M715.61,3463.59l-344,391c-99.16,80-228.55,97.93-328.22,45.57-83.51-43.87-117.73-122.14-128-148.91Z"/><path class="cls-10" d="M5842.29,3745.49l-520.95-201.23,880.3-417.64Z"/><path class="cls-10" d="M7890.87,3004.74l-829.61-164.58q161.31-332,322.64-663.91Z"/><path class="cls-10" d="M5975.52,789.07l-567,358.51L5600,425Z"/><path class="cls-10" d="M6715.46,607.66l-308.87,599.13Q6273.2,759,6139.81,311.16Z"/><path class="cls-10" d="M5036-358Q4968.42,5.11,4900.84,368.27C4786,272.13,4496.74,31,4381.87-65.11,4541.79-211.08,4876.09-212.08,5036-358Z"/><path class="cls-10" d="M1371.9-17,2047.49-3.68,1105.24,443.19Q1238.56,213.07,1371.9-17Z"/><path class="cls-10" d="M184.74,748.75-23,1175.31l-54.6-480.2Z"/><path class="cls-10" d="M7709.52,1686.09l-101.7,71.39,105.09-205.31Z"/><polygon class="cls-10" points="4375.51 3015.69 4786.84 3479.64 4022.6 3577.99 4375.51 3015.69"/></g></svg>